<?xml version="1.0" encoding="UTF-8"?>
<svg width="74px" height="74px" viewBox="0 0 74 74" version="1.1" xmlns="http://www.w3.org/2000/svg" xmlns:xlink="http://www.w3.org/1999/xlink">
    <!-- Generator: Sketch 52.5 (67469) - http://www.bohemiancoding.com/sketch -->
    <title>birchbuilder-app-icon</title>
    <desc>Created with Sketch.</desc>
    <g id="Page-1" stroke="none" stroke-width="1" fill="none" fill-rule="evenodd">
        <g id="Interface-home" transform="translate(-663.000000, -134.000000)">
            <g id="header" transform="translate(0.000000, 61.000000)">
                <g id="birchbuilder-app-icon" transform="translate(663.000000, 73.000000)">
                    <rect id="Rectangle" fill="#5A7184" x="0" y="0" width="74" height="74" rx="14"></rect>
                    <path d="M44.2369,56.2178 L42.7219,56.2178 C42.3499,56.2178 42.0469,55.9148 42.0469,55.5458 C42.0469,55.1738 42.3499,54.8708 42.7219,54.8708 L44.2369,54.8708 C44.6089,54.8708 44.9119,55.1738 44.9119,55.5458 C44.9119,55.9148 44.6089,56.2178 44.2369,56.2178 M27.0679,23.1908 L27.7849,23.1908 C28.2259,23.1908 28.5859,23.5508 28.5859,23.9918 C28.5859,24.4328 28.2259,24.7928 27.7849,24.7928 L27.0679,24.7928 C26.6269,24.7928 26.2669,24.4328 26.2669,23.9918 C26.2669,23.5508 26.6269,23.1908 27.0679,23.1908 M41.9119,34.2728 L37.8319,34.2728 C37.4599,34.2728 37.1569,33.9698 37.1569,33.5978 C37.1569,33.2288 37.4599,32.9258 37.8319,32.9258 L41.9119,32.9258 C42.2809,32.9258 42.5839,33.2288 42.5839,33.5978 C42.5839,33.9698 42.2809,34.2728 41.9119,34.2728 M47.5789,45.2618 C47.5789,44.8898 47.8819,44.5868 48.2539,44.5868 L53.7499,44.5868 C53.7319,43.9058 53.6479,43.2398 53.5489,42.5828 L50.6509,42.5828 C50.2789,42.5828 49.9759,42.2768 49.9759,41.9078 C49.9759,41.5358 50.2789,41.2328 50.6509,41.2328 L53.2909,41.2328 C51.5899,34.3028 45.3799,29.1398 37.9249,29.1398 L32.8819,29.1398 L32.8819,37.2188 L37.9249,37.2188 C42.2209,37.2188 45.7129,40.7138 45.7129,45.0068 C45.7129,49.3328 42.1909,52.8518 37.8649,52.8518 C33.5719,52.8518 30.0799,49.3598 30.0799,45.0668 L30.0799,42.7088 L26.1649,42.7088 C25.7959,42.7088 25.4899,42.4058 25.4899,42.0338 C25.4899,41.6618 25.7959,41.3588 26.1649,41.3588 L30.0799,41.3588 L30.0799,37.2188 L30.0889,37.2188 L30.0889,29.1398 L30.0799,29.1398 L30.0799,18.9188 L28.5919,18.9188 C28.2199,18.9188 27.9169,18.6158 27.9169,18.2438 C27.9169,17.8748 28.2199,17.5718 28.5919,17.5718 L30.0799,17.5718 L30.0799,10.9988 L22.0009,14.9168 L22.0009,23.1908 L24.3979,23.1908 C24.8389,23.1908 25.1989,23.5508 25.1989,23.9918 C25.1989,24.4328 24.8389,24.7928 24.3979,24.7928 L22.0009,24.7928 L22.0009,29.1398 L22.0009,31.4168 L22.0009,35.5778 L26.2939,35.5778 C26.6659,35.5778 26.9689,35.8808 26.9689,36.2528 C26.9689,36.6218 26.6659,36.9248 26.2939,36.9248 L22.0009,36.9248 L22.0009,45.0668 C22.0009,47.3768 22.5199,49.5548 23.4079,51.5348 L27.0919,51.5348 C27.4609,51.5348 27.7639,51.8378 27.7639,52.2098 C27.7639,52.5818 27.4609,52.8848 27.0919,52.8848 L24.1369,52.8848 C26.8699,57.6668 31.9609,60.9308 37.8649,60.9308 C42.2869,60.9308 46.2799,59.1278 49.1659,56.2178 L46.5109,56.2178 C46.1389,56.2178 45.8359,55.9148 45.8359,55.5458 C45.8359,55.1738 46.1389,54.8708 46.5109,54.8708 L50.2789,54.8708 C52.2589,52.3808 53.4979,49.3148 53.6959,45.9338 L48.2539,45.9338 C47.8819,45.9338 47.5789,45.6308 47.5789,45.2618" id="Fill-1" fill="#FFFFFF"></path>
                </g>
            </g>
        </g>
    </g>
</svg>