<?xml version="1.0" encoding="UTF-8"?>
<svg width="10px" height="16px" viewBox="0 0 10 16" version="1.1" xmlns="http://www.w3.org/2000/svg" xmlns:xlink="http://www.w3.org/1999/xlink">
    <!-- Generator: Sketch 52.5 (67469) - http://www.bohemiancoding.com/sketch -->
    <title>birchbuilder-logo</title>
    <desc>Created with Sketch.</desc>
    <g id="Page-1" stroke="none" stroke-width="1" fill="none" fill-rule="evenodd">
        <g id="Interface-home" transform="translate(-1292.000000, -23.000000)" fill="#FFFFFF">
            <g id="Header">
                <g id="birchbuilder-logo" transform="translate(1292.000000, 23.000000)">
                    <path d="M6.73845455,14.0366038 L6.27936364,14.0366038 C6.16663636,14.0366038 6.07481818,13.9425459 6.07481818,13.8280001 C6.07481818,13.7125231 6.16663636,13.6184652 6.27936364,13.6184652 L6.73845455,13.6184652 C6.85118182,13.6184652 6.943,13.7125231 6.943,13.8280001 C6.943,13.9425459 6.85118182,14.0366038 6.73845455,14.0366038 M1.53572727,3.78429068 L1.753,3.78429068 C1.88663636,3.78429068 1.99572727,3.89604266 1.99572727,4.03293884 C1.99572727,4.16983502 1.88663636,4.281587 1.753,4.281587 L1.53572727,4.281587 C1.40209091,4.281587 1.293,4.16983502 1.293,4.03293884 C1.293,3.89604266 1.40209091,3.78429068 1.53572727,3.78429068 M6.03390909,7.22438921 L4.79754545,7.22438921 C4.68481818,7.22438921 4.593,7.13033129 4.593,7.01485424 C4.593,6.90030846 4.68481818,6.80625054 4.79754545,6.80625054 L6.03390909,6.80625054 C6.14572727,6.80625054 6.23754545,6.90030846 6.23754545,7.01485424 C6.23754545,7.13033129 6.14572727,7.22438921 6.03390909,7.22438921 M7.75118182,10.6356185 C7.75118182,10.5201414 7.843,10.4260835 7.95572727,10.4260835 L9.62118182,10.4260835 C9.61572727,10.214686 9.59027273,10.0079448 9.56027273,9.80399748 L8.68209091,9.80399748 C8.56936364,9.80399748 8.47754545,9.70900829 8.47754545,9.59446251 C8.47754545,9.47898546 8.56936364,9.38492754 8.68209091,9.38492754 L9.48209091,9.38492754 C8.96663636,7.23370188 7.08481818,5.63099219 4.82572727,5.63099219 L3.29754545,5.63099219 L3.29754545,8.13889294 L4.82572727,8.13889294 C6.12754545,8.13889294 7.18572727,9.22381843 7.18572727,10.5564608 C7.18572727,11.8993472 6.11845455,12.9917228 4.80754545,12.9917228 C3.50663636,12.9917228 2.44845455,11.9077286 2.44845455,10.5750862 L2.44845455,9.84311067 L1.26209091,9.84311067 C1.15027273,9.84311067 1.05754545,9.74905275 1.05754545,9.6335757 C1.05754545,9.51809866 1.15027273,9.42404074 1.26209091,9.42404074 L2.44845455,9.42404074 L2.44845455,8.13889294 L2.45118182,8.13889294 L2.45118182,5.63099219 L2.44845455,5.63099219 L2.44845455,2.45816715 L1.99754545,2.45816715 C1.88481818,2.45816715 1.793,2.36410923 1.793,2.24863218 C1.793,2.1340864 1.88481818,2.04002848 1.99754545,2.04002848 L2.44845455,2.04002848 L2.44845455,-0.000376470588 L0.000272727273,1.21585761 L0.000272727273,3.78429068 L0.726636364,3.78429068 C0.860272727,3.78429068 0.969363636,3.89604266 0.969363636,4.03293884 C0.969363636,4.16983502 0.860272727,4.281587 0.726636364,4.281587 L0.000272727273,4.281587 L0.000272727273,5.63099219 L0.000272727273,6.33782348 L0.000272727273,7.62949015 L1.30118182,7.62949015 C1.41390909,7.62949015 1.50572727,7.72354807 1.50572727,7.83902512 C1.50572727,7.9535709 1.41390909,8.04762882 1.30118182,8.04762882 L0.000272727273,8.04762882 L0.000272727273,10.5750862 C0.000272727273,11.2921614 0.157545455,11.9682609 0.426636364,12.5828968 L1.543,12.5828968 C1.65481818,12.5828968 1.74663636,12.6769547 1.74663636,12.7924317 C1.74663636,12.9079088 1.65481818,13.0019667 1.543,13.0019667 L0.647545455,13.0019667 C1.47572727,14.4864056 3.01845455,15.4996235 4.80754545,15.4996235 C6.14754545,15.4996235 7.35754545,14.9399323 8.23209091,14.0366038 L7.42754545,14.0366038 C7.31481818,14.0366038 7.223,13.9425459 7.223,13.8280001 C7.223,13.7125231 7.31481818,13.6184652 7.42754545,13.6184652 L8.56936364,13.6184652 C9.16936364,12.8455139 9.54481818,11.8937596 9.60481818,10.8442222 L7.95572727,10.8442222 C7.843,10.8442222 7.75118182,10.7501643 7.75118182,10.6356185" id="Fill-1"></path>
                </g>
            </g>
        </g>
    </g>
</svg>