<?xml version="1.0" encoding="UTF-8"?>
<svg width="23px" height="19px" viewBox="0 0 23 19" version="1.1" xmlns="http://www.w3.org/2000/svg" xmlns:xlink="http://www.w3.org/1999/xlink">
    <!-- Generator: Sketch 52.2 (67145) - http://www.bohemiancoding.com/sketch -->
    <title>Icons/copy-code</title>
    <desc>Created with Sketch.</desc>
    <defs>
        <path d="M10.5157475,18.9814935 L8.31284235,18.3246081 C8.08171788,18.2578062 7.95171036,18.0091547 8.01671412,17.7716369 L12.9461658,0.321496229 C13.0111696,0.0839783638 13.253128,-0.0496254352 13.4842525,0.0171764643 L15.6871576,0.674061809 C15.9182821,0.740863709 16.0482896,0.989515223 15.9832859,1.22703309 L11.0538342,18.6771737 C10.9852191,18.9146916 10.746872,19.0520066 10.5157475,18.9814935 Z M6.23199916,14.857271 L7.87572791,13.1223892 C8.0495475,12.9391797 8.03821144,12.6475401 7.84549841,12.4792865 L4.4220082,9.49932781 L7.84549841,6.51936917 C8.03821144,6.35111555 8.05332619,6.05947593 7.87572791,5.87626643 L6.23199916,4.14138461 C6.06195826,3.96191408 5.77477806,3.95069717 5.58962241,4.12268976 L0.144534769,9.1702985 C-0.0481782564,9.34603007 -0.0481782564,9.64888659 0.144534769,9.82461815 L5.58962241,14.8759659 C5.77477806,15.0479585 6.06195826,15.0404805 6.23199916,14.857271 Z M17.4103776,14.8792104 L22.8554652,9.82915197 C23.0481783,9.65346526 23.0481783,9.35068603 22.8554652,9.17499932 L17.4103776,4.12120285 C17.2290006,3.95299217 16.9418204,3.9604682 16.7680008,4.13989293 L15.1242721,5.87433195 C14.9504525,6.0574947 14.9617886,6.34905988 15.1545016,6.51727056 L18.5779918,9.50020664 L15.1545016,12.4794047 C14.9617886,12.6476154 14.9466738,12.9391806 15.1242721,13.1223433 L16.7680008,14.8567823 C16.9380417,15.0399451 17.2252219,15.0474211 17.4103776,14.8792104 Z" id="path-1"></path>
    </defs>
    <g id="Page-1" stroke="none" stroke-width="1" fill="none" fill-rule="evenodd">
        <g id="Interface-main1" transform="translate(-607.000000, -21.000000)">
            <g id="Header">
                <g id="Icons/copy-code" transform="translate(607.000000, 21.000000)">
                    <mask id="mask-2" fill="white">
                        <use xlink:href="#path-1"></use>
                    </mask>
                    <use id="code" fill="#FFFFFF" fill-rule="nonzero" xlink:href="#path-1"></use>
                </g>
            </g>
        </g>
    </g>
</svg>