<?xml version="1.0" encoding="UTF-8"?>
<svg width="14px" height="16px" viewBox="0 0 14 16" version="1.1" xmlns="http://www.w3.org/2000/svg" xmlns:xlink="http://www.w3.org/1999/xlink">
    <!-- Generator: Sketch 52.2 (67145) - http://www.bohemiancoding.com/sketch -->
    <title>icons/trash-alt</title>
    <desc>Created with Sketch.</desc>
    <defs>
        <path d="M0.25,2.9609375 L0.25,2.140625 C0.25,1.75097656 0.572433036,1.4375 0.973214286,1.4375 L4.34821429,1.4375 L4.63147321,0.889648438 C4.75200893,0.649414062 5.00212054,0.5 5.27633929,0.5 L8.72064732,0.5 C8.99486607,0.5 9.24497768,0.649414062 9.36852679,0.889648438 L9.65178571,1.4375 L13.0267857,1.4375 C13.427567,1.4375 13.75,1.75097656 13.75,2.140625 L13.75,2.9609375 C13.75,3.15429688 13.5872768,3.3125 13.3883929,3.3125 L0.611607143,3.3125 C0.412723214,3.3125 0.25,3.15429688 0.25,2.9609375 Z M12.7857143,4.6015625 L12.7857143,14.09375 C12.7857143,14.8701172 12.1378348,15.5 11.3392857,15.5 L2.66071429,15.5 C1.86216518,15.5 1.21428571,14.8701172 1.21428571,14.09375 L1.21428571,4.6015625 C1.21428571,4.40820312 1.37700893,4.25 1.57589286,4.25 L12.4241071,4.25 C12.6229911,4.25 12.7857143,4.40820312 12.7857143,4.6015625 Z M4.58928571,6.59375 C4.58928571,6.3359375 4.37232143,6.125 4.10714286,6.125 C3.84196429,6.125 3.625,6.3359375 3.625,6.59375 L3.625,13.15625 C3.625,13.4140625 3.84196429,13.625 4.10714286,13.625 C4.37232143,13.625 4.58928571,13.4140625 4.58928571,13.15625 L4.58928571,6.59375 Z M7.48214286,6.59375 C7.48214286,6.3359375 7.26517857,6.125 7,6.125 C6.73482143,6.125 6.51785714,6.3359375 6.51785714,6.59375 L6.51785714,13.15625 C6.51785714,13.4140625 6.73482143,13.625 7,13.625 C7.26517857,13.625 7.48214286,13.4140625 7.48214286,13.15625 L7.48214286,6.59375 Z M10.375,6.59375 C10.375,6.3359375 10.1580357,6.125 9.89285714,6.125 C9.62767857,6.125 9.41071429,6.3359375 9.41071429,6.59375 L9.41071429,13.15625 C9.41071429,13.4140625 9.62767857,13.625 9.89285714,13.625 C10.1580357,13.625 10.375,13.4140625 10.375,13.15625 L10.375,6.59375 Z" id="path-1"></path>
    </defs>
    <g id="Page-1" stroke="none" stroke-width="1" fill="none" fill-rule="evenodd">
        <g id="Interface-main1" transform="translate(-588.000000, -572.000000)">
            <g id="component-ui" transform="translate(579.000000, 401.000000)">
                <g id="icons/trash-alt" transform="translate(9.000000, 171.000000)">
                    <mask id="mask-2" fill="white">
                        <use xlink:href="#path-1"></use>
                    </mask>
                    <use id="trash-alt" fill="#024882" fill-rule="nonzero" xlink:href="#path-1"></use>
                </g>
            </g>
        </g>
    </g>
</svg>