<?xml version="1.0" encoding="UTF-8"?>
<svg width="16px" height="16px" viewBox="0 0 16 16" version="1.1" xmlns="http://www.w3.org/2000/svg" xmlns:xlink="http://www.w3.org/1999/xlink">
    <!-- Generator: Sketch 52.2 (67145) - http://www.bohemiancoding.com/sketch -->
    <title>icons/new</title>
    <desc>Created with Sketch.</desc>
    <defs>
        <path d="M16,9.36428571 L16,6.63571429 C16,6.16071429 15.6178571,5.77857143 15.1428571,5.77857143 L10.2214286,5.77857143 L10.2214286,0.857142857 C10.2214286,0.382142857 9.83928571,0 9.36428571,0 L6.63571429,0 C6.16071429,0 5.77857143,0.382142857 5.77857143,0.857142857 L5.77857143,5.77857143 L0.857142857,5.77857143 C0.382142857,5.77857143 0,6.16071429 0,6.63571429 L0,9.36428571 C0,9.83928571 0.382142857,10.2214286 0.857142857,10.2214286 L5.77857143,10.2214286 L5.77857143,15.1428571 C5.77857143,15.6178571 6.16071429,16 6.63571429,16 L9.36428571,16 C9.83928571,16 10.2214286,15.6178571 10.2214286,15.1428571 L10.2214286,10.2214286 L15.1428571,10.2214286 C15.6178571,10.2214286 16,9.83928571 16,9.36428571 Z" id="path-1"></path>
    </defs>
    <g id="Page-1" stroke="none" stroke-width="1" fill="none" fill-rule="evenodd">
        <g id="Interface-main1" transform="translate(-1201.000000, -22.000000)">
            <g id="Header">
                <g id="icons/new" transform="translate(1201.000000, 22.000000)">
                    <mask id="mask-2" fill="white">
                        <use xlink:href="#path-1"></use>
                    </mask>
                    <use id="plus" fill="#FFFFFF" fill-rule="nonzero" xlink:href="#path-1"></use>
                </g>
            </g>
        </g>
    </g>
</svg>