<?xml version="1.0" encoding="UTF-8"?>
<svg width="16px" height="16px" viewBox="0 0 16 16" version="1.1" xmlns="http://www.w3.org/2000/svg" xmlns:xlink="http://www.w3.org/1999/xlink">
    <!-- Generator: Sketch 52.2 (67145) - http://www.bohemiancoding.com/sketch -->
    <title>icons/preview</title>
    <desc>Created with Sketch.</desc>
    <g id="Page-1" stroke="none" stroke-width="1" fill="none" fill-rule="evenodd">
        <g id="Interface-main1" transform="translate(-866.000000, -22.000000)" fill="#FFFFFF">
            <g id="Header">
                <path d="M873.167398,32.2204437 L877.407204,26.7693219 C877.442518,26.7239188 877.442518,26.6603411 877.407204,26.614938 C877.364572,26.5601256 877.285577,26.5502513 877.230764,26.5928832 L871.779584,30.8326446 L866.269671,27.9465305 C866.023621,27.8176482 865.928638,27.5137073 866.057522,27.2676594 C866.117889,27.1524128 866.220569,27.0650435 866.343994,27.0239023 L881.338026,22.025945 C881.601534,21.9381098 881.886355,22.0805188 881.974191,22.3440244 C882.008603,22.4472587 882.008603,22.5588694 881.974191,22.6621037 L876.976181,37.6559756 C876.888344,37.9194812 876.603524,38.0618902 876.340015,37.974055 C876.21659,37.9329138 876.113911,37.8455445 876.053543,37.7302979 L873.167398,32.2204437 Z" id="icons/preview"></path>
            </g>
        </g>
    </g>
</svg>