<?xml version="1.0" encoding="UTF-8"?>
<svg width="16px" height="16px" viewBox="0 0 16 16" version="1.1" xmlns="http://www.w3.org/2000/svg" xmlns:xlink="http://www.w3.org/1999/xlink">
    <!-- Generator: Sketch 52.5 (67469) - http://www.bohemiancoding.com/sketch -->
    <title>Icons/save</title>
    <desc>Created with Sketch.</desc>
    <defs>
        <path d="M15.4978929,3.62295139 L12.5021071,0.710381944 C12.180618,0.397820783 11.7445845,0.222224534 11.2899286,0.222222222 L1.71428571,0.222222222 C0.7675,0.222222222 0,0.968402778 0,1.88888889 L0,14.1111111 C0,15.0315972 0.7675,15.7777778 1.71428571,15.7777778 L14.2857143,15.7777778 C15.2325,15.7777778 16,15.0315972 16,14.1111111 L16,4.80145833 C15.9999976,4.35943173 15.8193843,3.93551024 15.4978929,3.62295139 Z M8,13.5555556 C6.73764286,13.5555556 5.71428571,12.560625 5.71428571,11.3333333 C5.71428571,10.1060417 6.73764286,9.11111111 8,9.11111111 C9.26235714,9.11111111 10.2857143,10.1060417 10.2857143,11.3333333 C10.2857143,12.560625 9.26235714,13.5555556 8,13.5555556 Z M11.4285714,2.98194444 L11.4285714,6.47222222 C11.4285714,6.70232639 11.2366786,6.88888889 11,6.88888889 L2.71428571,6.88888889 C2.47760714,6.88888889 2.28571429,6.70232639 2.28571429,6.47222222 L2.28571429,2.86111111 C2.28571429,2.63100694 2.47760714,2.44444444 2.71428571,2.44444444 L10.8757143,2.44444444 C10.9893929,2.44444444 11.0983929,2.48833333 11.17875,2.56649306 L11.3030357,2.68732639 C11.383423,2.76545391 11.4285818,2.87143652 11.4285714,2.98194444 Z" id="path-1"></path>
    </defs>
    <g id="Page-1" stroke="none" stroke-width="1" fill="none" fill-rule="evenodd">
        <g id="Interface-main1" transform="translate(-1174.000000, -23.000000)">
            <g id="Header">
                <g id="Icons/save" transform="translate(1174.000000, 23.000000)">
                    <mask id="mask-2" fill="white">
                        <use xlink:href="#path-1"></use>
                    </mask>
                    <use id="save" fill="#FFFFFF" fill-rule="nonzero" xlink:href="#path-1"></use>
                </g>
            </g>
        </g>
    </g>
</svg>