<?xml version="1.0" encoding="UTF-8"?>
<svg width="111px" height="56px" viewBox="0 0 111 56" version="1.1" xmlns="http://www.w3.org/2000/svg" xmlns:xlink="http://www.w3.org/1999/xlink">
    <!-- Generator: Sketch 52.2 (67145) - http://www.bohemiancoding.com/sketch -->
    <title>unum-logo-white</title>
    <desc>Created with Sketch.</desc>
    <g id="unum-logo-white" stroke="none" stroke-width="1" fill="none" fill-rule="evenodd">
        <g id="two-color-logo" transform="translate(16.000000, 15.000000)" fill="#FFFFFF">
            <path d="M42.148124,25.3914738 C48.4326464,25.3914738 49.8487502,21.2442252 49.8487502,18.3969133 L49.8487502,10.0123466 L45.2151828,10.0123466 L45.2151828,18.0771157 C45.2151828,20.2883744 43.9914573,21.2548514 42.148124,21.2548514 C40.3002935,21.2548514 39.0775674,20.2883744 39.0775674,18.0771157 L39.0775674,10.0123466 L34.444,10.0123466 L34.444,18.3969133 C34.444,21.2442252 35.8591044,25.3914738 42.148124,25.3914738" id="Fill-1"></path>
            <path d="M15.4072486,18.3969133 L15.4072486,10.0123466 L10.7746806,10.0123466 L10.7746806,18.0771157 C10.7746806,20.2883744 9.54995572,21.2548514 7.70512334,21.2548514 C5.85829222,21.2548514 4.63306768,20.2883744 4.63306768,18.0771157 L4.63306768,10.0123466 L0,10.0123466 L0,18.3969133 C0,21.2442252 1.4201012,25.3914738 7.70512334,25.3914738 C13.9911448,25.3914738 15.4072486,21.2442252 15.4072486,18.3969133 Z" id="Fill-3"></path>
            <path d="M24.9266237,9.42998102 C18.6396028,9.42998102 17.2215003,13.5762176 17.2215003,16.4235294 L17.2215003,24.8075901 L21.856067,24.8075901 L21.856067,16.740797 C21.856067,14.5351044 23.0797925,13.5666034 24.9266237,13.5666034 C26.7719557,13.5666034 27.9951815,14.5351044 27.9951815,16.740797 L27.9951815,24.8075901 L32.6287489,24.8075901 L32.6287489,16.4235294 C32.6287489,13.5762176 31.2111461,9.42998102 24.9266237,9.42998102" id="Fill-5"></path>
            <path d="M63.7389589,11.8055914 C63.5390854,11.5348767 62.3573333,9.42987982 58.5657331,9.42987982 C54.7041771,9.42987982 51.6631018,11.3866161 51.6631018,16.1142568 L51.6631018,24.8074889 L56.192735,24.8074889 L56.192735,16.1061607 C56.192735,14.582062 56.9617483,13.4146996 58.8315648,13.4146996 C60.7058786,13.4146996 61.4718937,14.582062 61.4718937,16.1061607 L61.4718937,24.8074889 L66.0025262,24.8074889 L66.0025262,16.1061607 C66.0025262,14.582062 66.7690411,13.4146996 68.6413561,13.4146996 C70.5146705,13.4146996 71.2821847,14.582062 71.2821847,16.1061607 L71.2821847,24.8074889 L75.8093194,24.8074889 L75.8093194,16.1142568 C75.8093194,11.3866161 72.7672448,9.42987982 68.9076875,9.42987982 C65.1215838,9.42987982 63.9368336,11.5348767 63.7389589,11.8055914" id="Fill-7"></path>
            <path d="M21.1160354,3.77841872 C21.1160354,5.91681214 22.800969,7.56134092 24.9246249,7.56134092 C27.0282935,7.56134092 28.6827464,5.91681214 28.6827464,3.77841872 C28.6827464,1.64306135 27.0282935,5.06008855e-05 24.9246249,5.06008855e-05 C22.800969,5.06008855e-05 21.1160354,1.64306135 21.1160354,3.77841872" id="Fill-9"></path>
            <path d="M38.3341379,3.77841872 C38.3341379,5.91681214 40.0210702,7.56134092 42.1457255,7.56134092 C44.2483947,7.56134092 45.9023479,5.91681214 45.9023479,3.77841872 C45.9023479,1.64306135 44.2483947,5.06008855e-05 42.1457255,5.06008855e-05 C40.0210702,5.06008855e-05 38.3341379,1.64306135 38.3341379,3.77841872" id="Fill-11"></path>
            <path d="M63.7390089,7.56134092 C65.8416781,7.56134092 67.4956312,5.91681214 67.4956312,3.77841872 C67.4956312,1.64306135 65.8416781,5.06008855e-05 63.7390089,5.06008855e-05 C61.6143536,5.06008855e-05 59.9274213,1.64306135 59.9274213,3.77841872 C59.9274213,5.91681214 61.6143536,7.56134092 63.7390089,7.56134092 Z" id="Fill-13"></path>
            <path d="M77.2153295,12.3232385 C76.3298899,12.3232385 75.6168412,11.6036939 75.6168412,10.7045161 C75.6168412,9.80635041 76.3298899,9.07719165 77.2153295,9.07719165 C78.0957723,9.07719165 78.8133182,9.80635041 78.8133182,10.7045161 C78.8133182,11.6036939 78.0957723,12.3232385 77.2153295,12.3232385 L77.2153295,12.3232385 Z M77.2153295,9.31147375 C76.4558102,9.31147375 75.8516926,9.93892473 75.8516926,10.7045161 C75.8516926,11.4655534 76.4558102,12.0849083 77.2153295,12.0849083 C77.9693523,12.0849083 78.5744693,11.4655534 78.5744693,10.7045161 C78.5744693,9.93892473 77.9693523,9.31147375 77.2153295,9.31147375 L77.2153295,9.31147375 Z M77.5766009,11.6219102 L77.0034636,10.7783934 L76.9489981,10.7783934 L76.9489981,11.6219102 L76.691661,11.6219102 L76.691661,9.78813409 C76.8125844,9.72842505 76.9804782,9.69098039 77.1518697,9.69098039 C77.5311297,9.69098039 77.7974611,9.90704617 77.7974611,10.2329159 C77.7974611,10.5481594 77.5766009,10.7277925 77.2782897,10.7591651 L77.8879039,11.6219102 L77.5766009,11.6219102 Z M77.1298836,9.90704617 C77.0614269,9.90704617 76.9979671,9.92070841 76.9489981,9.93437065 L76.9489981,10.6038204 L77.0889096,10.6038204 C77.3372524,10.6038204 77.5311297,10.5117268 77.5311297,10.2329159 C77.5311297,9.9713093 77.3097698,9.90704617 77.1298836,9.90704617 L77.1298836,9.90704617 Z" id="Fill-15"></path>
        </g>
    </g>
</svg>