<?xml version="1.0" encoding="UTF-8"?>
<svg width="30px" height="30px" viewBox="0 0 30 30" version="1.1" xmlns="http://www.w3.org/2000/svg" xmlns:xlink="http://www.w3.org/1999/xlink">
    <!-- Generator: Sketch 52.4 (67378) - http://www.bohemiancoding.com/sketch -->
    <title>align-center-selected</title>
    <desc>Created with Sketch.</desc>
    <defs>
        <path d="M20.1428571,6.625 L20.1428571,8.1875 C20.1428571,8.53269531 19.855058,8.8125 19.5,8.8125 L10.5,8.8125 C10.144942,8.8125 9.85714286,8.53269531 9.85714286,8.1875 L9.85714286,6.625 C9.85714286,6.27980469 10.144942,6 10.5,6 L19.5,6 C19.855058,6 20.1428571,6.27980469 20.1428571,6.625 Z M6.64285714,13.8125 L23.3571429,13.8125 C23.7122009,13.8125 24,13.5326953 24,13.1875 L24,11.625 C24,11.2798047 23.7122009,11 23.3571429,11 L6.64285714,11 C6.28779911,11 6,11.2798047 6,11.625 L6,13.1875 C6,13.5326953 6.28779911,13.8125 6.64285714,13.8125 Z M6.64285714,23.8125 L23.3571429,23.8125 C23.7122009,23.8125 24,23.5326953 24,23.1875 L24,21.625 C24,21.2798047 23.7122009,21 23.3571429,21 L6.64285714,21 C6.28779911,21 6,21.2798047 6,21.625 L6,23.1875 C6,23.5326953 6.28779911,23.8125 6.64285714,23.8125 Z M19.5,16 L10.5,16 C10.144942,16 9.85714286,16.2798047 9.85714286,16.625 L9.85714286,18.1875 C9.85714286,18.5326953 10.144942,18.8125 10.5,18.8125 L19.5,18.8125 C19.855058,18.8125 20.1428571,18.5326953 20.1428571,18.1875 L20.1428571,16.625 C20.1428571,16.2798047 19.855058,16 19.5,16 Z" id="path-1"></path>
    </defs>
    <g id="Page-1" stroke="none" stroke-width="1" fill="none" fill-rule="evenodd">
        <g id="Artboard" transform="translate(-2373.000000, -329.000000)">
            <g id="Filter" transform="translate(2186.000000, 329.000000)">
                <g id="align-center-selected" transform="translate(187.000000, 0.000000)">
                    <path d="M5,0 L30,0 L30,30 L5,30 C2.23857625,30 3.38176876e-16,27.7614237 0,25 L0,5 C-3.38176876e-16,2.23857625 2.23857625,-1.26909153e-15 5,-1.77635684e-15 Z" id="Rectangle" fill="#717273"></path>
                    <mask id="mask-2" fill="white">
                        <use xlink:href="#path-1"></use>
                    </mask>
                    <use id="align-center" fill="#FFFFFF" fill-rule="nonzero" xlink:href="#path-1"></use>
                </g>
            </g>
        </g>
    </g>
</svg>