<?xml version="1.0" encoding="UTF-8"?>
<svg width="30px" height="30px" viewBox="0 0 30 30" version="1.1" xmlns="http://www.w3.org/2000/svg" xmlns:xlink="http://www.w3.org/1999/xlink">
    <!-- Generator: Sketch 52.4 (67378) - http://www.bohemiancoding.com/sketch -->
    <title>all-deselected</title>
    <desc>Created with Sketch.</desc>
    <g id="Page-1" stroke="none" stroke-width="1" fill="none" fill-rule="evenodd">
        <g id="Artboard" transform="translate(-2294.000000, -434.000000)">
            <g id="Filter" transform="translate(2234.000000, 434.000000)">
                <g id="all-deselected" transform="translate(60.000000, 0.000000)">
                    <path d="M0,0 L26,0 C28.209139,-4.05812251e-16 30,1.790861 30,4 L30,26 C30,28.209139 28.209139,30 26,30 L0,30 L0,0 Z" id="Rectangle" fill="#232323"></path>
                    <path d="M13.84375,22 L12.2441406,17.9130859 L7.09375,17.9130859 L5.51171875,22 L4,22 L9.08007812,9.09765625 L10.3369141,9.09765625 L15.390625,22 L13.84375,22 Z M11.7783203,16.5683594 L10.2841797,12.5869141 C10.0908193,12.0830053 9.89160259,11.4648474 9.68652344,10.7324219 C9.55761654,11.2949247 9.37304808,11.9130826 9.1328125,12.5869141 L7.62109375,16.5683594 L11.7783203,16.5683594 Z M18.3964844,22 L16.9375,22 L16.9375,8.32421875 L18.3964844,8.32421875 L18.3964844,22 Z M22.9492188,22 L21.4902344,22 L21.4902344,8.32421875 L22.9492188,8.32421875 L22.9492188,22 Z" id="All" fill="#9B9B9B"></path>
                </g>
            </g>
        </g>
    </g>
</svg>